<?xml version="1.0" standalone="no"?>
<!DOCTYPE svg PUBLIC "-//W3C//DTD SVG 20010904//EN"
 "http://www.w3.org/TR/2001/REC-SVG-20010904/DTD/svg10.dtd">
<svg version="1.0" xmlns="http://www.w3.org/2000/svg"
 width="561.000000pt" height="561.000000pt" viewBox="0 0 561.000000 561.000000"
 preserveAspectRatio="xMidYMid meet">
<metadata>
Created by potrace 1.14, written by Peter Selinger 2001-2017
</metadata>
<g transform="translate(0.000000,561.000000) scale(0.100000,-0.100000)"
fill="#000000" stroke="none">
<path d="M3575 5602 c-11 -3 -32 -13 -47 -23 -14 -11 -38 -19 -51 -19 -14 0
-28 -4 -31 -8 -3 -5 -18 -7 -33 -5 -21 3 -39 -4 -67 -26 -21 -17 -49 -31 -62
-31 -13 0 -41 -16 -63 -35 -21 -19 -44 -35 -51 -35 -6 0 -23 -9 -37 -20 -14
-11 -36 -20 -49 -20 -13 0 -24 -4 -24 -10 0 -5 -11 -12 -24 -16 -17 -4 -27
-15 -31 -34 -6 -29 -79 -95 -94 -85 -5 3 -22 -15 -38 -39 -15 -25 -37 -49 -48
-54 -11 -5 -34 -35 -50 -67 -16 -32 -37 -60 -46 -62 -10 -3 -23 -18 -29 -34
-12 -27 -23 -33 -74 -41 -18 -3 -49 -72 -61 -136 -2 -13 -8 -38 -14 -55 -5
-18 -12 -49 -16 -69 -5 -34 -9 -38 -35 -38 -26 0 -29 -4 -32 -37 -2 -21 -8
-37 -14 -36 -6 1 -33 5 -59 8 -48 7 -113 38 -128 62 -12 20 -22 16 -77 -25
-36 -28 -61 -39 -92 -41 -22 -1 -54 -9 -69 -16 -15 -8 -49 -15 -74 -15 -59 0
-85 -14 -85 -46 0 -27 -23 -42 -43 -26 -6 5 -24 12 -40 16 -23 5 -29 2 -37
-18 -5 -15 -22 -29 -44 -36 -20 -6 -36 -15 -36 -20 0 -8 -5 -15 -69 -91 -17
-20 -34 -45 -38 -56 -18 -48 -99 -119 -155 -137 -10 -3 -18 -15 -18 -26 0 -11
-4 -20 -9 -20 -5 0 -12 -9 -16 -20 -3 -11 -24 -39 -45 -62 -26 -27 -45 -61
-56 -97 -9 -31 -20 -61 -24 -66 -5 -6 -12 -37 -15 -70 -8 -68 -26 -122 -59
-180 -12 -22 -31 -71 -41 -110 -10 -38 -22 -74 -26 -79 -5 -6 -9 -20 -9 -33 0
-18 -6 -23 -25 -23 -15 0 -38 6 -53 13 -15 7 -33 12 -39 11 -7 -1 -18 -2 -23
-3 -7 -1 -8 -7 -1 -18 7 -13 3 -29 -16 -60 -26 -45 -28 -87 -3 -89 8 -1 20 -2
25 -3 6 0 17 -17 24 -36 7 -19 16 -35 19 -35 4 0 16 -14 26 -31 10 -16 29 -35
43 -40 14 -5 23 -12 20 -16 -7 -7 38 -69 73 -101 14 -12 39 -26 55 -30 25 -7
29 -13 27 -35 -2 -19 1 -27 12 -27 9 0 42 -13 75 -29 36 -17 64 -25 73 -20 29
16 36 -4 22 -69 -7 -34 -15 -77 -18 -95 -3 -17 -8 -42 -10 -53 -2 -12 -7 -37
-10 -55 -3 -19 -8 -45 -10 -59 -3 -14 -7 -43 -11 -65 -3 -22 -19 -99 -35 -171
-16 -73 -32 -147 -35 -165 -3 -19 -8 -41 -10 -49 -2 -8 -7 -28 -10 -45 -7 -41
-9 -51 -43 -195 -40 -168 -80 -363 -108 -530 -4 -23 -16 -84 -29 -150 -3 -14
-8 -44 -11 -66 -2 -23 -7 -53 -9 -65 -3 -13 -12 -76 -20 -139 -8 -63 -26 -149
-39 -190 -27 -85 -35 -128 -61 -341 -2 -20 -15 -81 -29 -135 -13 -55 -27 -111
-30 -126 l-6 -28 914 0 914 0 55 63 c30 34 94 109 143 167 48 58 104 125 125
150 21 25 79 95 129 155 51 61 111 133 135 160 23 28 59 70 79 95 20 25 46 57
59 71 12 14 37 45 55 67 19 23 41 50 50 60 87 100 159 180 223 247 41 44 80
88 85 98 14 25 52 31 176 29 l108 -2 93 44 c51 25 122 52 158 61 36 9 71 25
81 36 20 24 124 79 149 79 18 0 36 19 54 53 6 12 33 38 60 59 27 20 57 53 67
72 10 19 22 37 28 41 31 19 160 355 160 418 0 16 4 36 9 45 23 44 31 271 12
339 -6 23 -11 54 -10 70 1 15 -17 84 -41 153 -23 69 -44 136 -46 149 -3 13
-18 42 -33 65 -16 22 -43 71 -61 109 -17 37 -35 67 -39 67 -5 0 -16 17 -27 38
-10 20 -27 45 -36 55 -10 10 -18 29 -18 42 0 16 -6 25 -15 25 -9 0 -15 9 -15
24 0 18 8 27 30 35 17 5 30 16 30 24 0 18 37 50 81 70 35 16 59 51 59 85 -1
19 -23 52 -35 52 -5 0 -28 10 -52 21 -41 20 -44 23 -37 53 4 17 8 44 10 61 1
16 16 59 33 95 17 36 31 72 31 80 0 9 11 31 23 50 16 23 26 57 31 100 4 36 9
88 12 115 11 94 11 110 -1 150 -7 22 -9 49 -5 60 4 11 4 27 -1 36 -7 14 -21
86 -34 173 -3 16 -18 57 -35 90 -27 52 -29 63 -19 87 12 30 10 36 -40 123 -12
22 -20 47 -18 57 3 12 -4 24 -22 35 -28 18 -74 65 -131 133 -67 81 -184 192
-229 219 -25 14 -67 41 -92 59 -66 47 -241 99 -321 96 -21 0 -38 3 -38 8 0 21
-62 32 -180 33 -69 1 -134 0 -145 -2z"/>
</g>
</svg>
